/* XPM */
static char *result[] = {
/* columns rows colors chars-per-pixel */
"64 64 138 2 ",
"   c #010512",
".  c #040917",
"X  c #050B18",
"o  c #090E1C",
"O  c #071118",
"+  c #0B131B",
"@  c #0E1A1D",
"#  c #13191A",
"$  c #0F3617",
"%  c #103517",
"&  c #113419",
"*  c #153A1C",
"=  c #183D1F",
"-  c #0E1423",
";  c #111724",
":  c #151C24",
">  c #1C1F25",
",  c #151C2B",
"<  c #181F2F",
"1  c #171E30",
"2  c #181F30",
"3  c #122122",
"4  c #1D2027",
"5  c #132C22",
"6  c #17202F",
"7  c #19202F",
"8  c #1D2A2D",
"9  c #173420",
"0  c #183421",
"q  c #1A3F23",
"w  c #1B3329",
"e  c #1E3928",
"r  c #192030",
"t  c #272523",
"y  c #2A2727",
"u  c #202B26",
"i  c #20232F",
"p  c #2A2728",
"a  c #222B2E",
"s  c #2D2B2B",
"d  c #283826",
"f  c #26342D",
"g  c #28372B",
"h  c #2C3C2C",
"j  c #222531",
"k  c #353734",
"l  c #3B3937",
"z  c #34373C",
"x  c #34383C",
"c  c #473D30",
"v  c #19411D",
"b  c #1A531C",
"n  c #1E6917",
"m  c #1C6419",
"M  c #1D6A18",
"N  c #356D1F",
"B  c #36791A",
"V  c #3A7B1B",
"C  c #194120",
"Z  c #1B4B22",
"A  c #1A5020",
"S  c #2F412B",
"D  c #324B25",
"F  c #31432B",
"G  c #34482A",
"H  c #394E2A",
"J  c #255622",
"K  c #2B5722",
"L  c #395520",
"P  c #3D5528",
"I  c #3D4734",
"U  c #3C6025",
"Y  c #52761F",
"T  c #4B472E",
"R  c #435C22",
"E  c #52562E",
"W  c #5B4A3B",
"Q  c #614932",
"!  c #654E38",
"~  c #665038",
"^  c #705C3D",
"/  c #7C5B3A",
"(  c #496526",
")  c #4D6D25",
"_  c #547623",
"`  c #567923",
"'  c #5A7D24",
"]  c #505147",
"[  c #7B5A41",
"{  c #815D39",
"}  c #87653F",
"|  c #8F663F",
" . c #90663E",
".. c #976A3F",
"X. c #82694C",
"o. c #976940",
"O. c #A77343",
"+. c #45831B",
"@. c #49861B",
"#. c #52851D",
"$. c #528A1C",
"%. c #5C8F1D",
"&. c #60891F",
"*. c #67921F",
"=. c #69941F",
"-. c #6E9C1F",
";. c #709F1F",
":. c #71A01E",
">. c #5C8222",
",. c #608723",
"<. c #648D21",
"1. c #658729",
"2. c #679220",
"3. c #689320",
"4. c #6D9B21",
"5. c #B8824A",
"6. c #B2956C",
"7. c #B7996D",
"8. c #BC9A6D",
"9. c #C3854B",
"0. c #D2994E",
"q. c #D58F50",
"w. c #D79D50",
"e. c #D99855",
"r. c #E59C55",
"t. c #EF9F58",
"y. c #E2A351",
"u. c #EFA056",
"i. c #EFA158",
"p. c #F5A357",
"a. c #FEA557",
"s. c #F5A358",
"d. c #FFA558",
"f. c #D29D65",
"g. c #D9AB73",
"h. c #FDBC77",
"j. c #FCBC78",
"k. c #FDCA8A",
/* pixels */
"X X X X X X X X X X X X X X X X X X X X X X X X X X X X X X X X X X X X X . X X X X X X X X X X X X X X X X X X X X . . X X . X ",
"X X X X X X X X X X X X X X X X X X X X X X X X X X X X X X X X X X X X X X X X X X X X X X X X X X X X X X X X X X X X X X X X ",
"X X X X X X X X X X X X X X X X X X X X X X X X X X X X X o X X X X X X X X X X X X o X X X X X X X X X X X X X X X X X O . X X ",
"X X X X X X X X X X X X X - - - - - - - - - - ; - - ; - - - - - ; + ; ; - - - - - - - - ; - - - - - o X X X X X X X . X . X X X ",
"X X X X X X X o X X X X X 1 2 2 2 r r 7 6 7 6 6 2 2 < < < < < 7 < < < < 2 < < < 7 7 7 7 , r r r < < - X X X X X X X X X X X X X ",
"X X X X X X X X X X X X X 1 < < r r r 2 r 6 6 6 7 7 < < < 7 7 7 7 7 < < < < < 2 7 7 r r r r < 1 < < - X X X X X X X X X X X X X ",
"X X X X X X o X X X o - o Z Z Z A A A A A K ) ) ) ) ) ) ) ) ) ) ) ) ) ) ) ) ) ) ) ) ) ) U Z Z Z Z Z 5 - ; o X X X X X X X X X X ",
"X X X X X X X X X X - ; - m M n M M M M M B -.;.;.-.;.-.-.-.;.-.4.;.;.4.;.-.-.;.-.4.4.4.$.M M M m M q 2 < o X X X X X X X X X X ",
"X X X X X X X X X o - - - m m m M M M M M B -.-.-.-.-.-.-.-.-.-.-.-.-.-.-.-.-.-.4.-.-.-.@.n M M m m q < 2 o X X X X X X X X X X ",
"X X X X X X X X X X - - - 9 v C Z Z J @.@.$.-.-.-.-.-.-.-.-.-.-.-.-.-.-.-.-.-.-.-.-.-.-.*.+.+.N Z J w 7 r o X X X X X X X X O . ",
"X X X X o X X X X X - - - . X X 6 6 S ;.-.-.-.-.-.-.-.-.-.-.-.-.-.4.-.-.;.-.-.-.4.-.-.-.-.-.4.) r r 7 2 r o X X . X X X X X X X ",
"X X X X X X X X X X - - - . . . 6 6 S 4.-.-.-.-.-.-.-.-.-.-.-.-.-.-.-.-.4.-.-.-.-.-.-.-.-.4.-.) r r 7 r r o X X X X X X X X X X ",
"X X X X X X X X X X X o o ; ; , >.` >.4.-.-.-.-.-.-.-.-.-.-.-.-.-.-.-.-.-.-.-.-.-.-.-.-.-.-.-.<.` ` F 7 r o X X X X X X X X X X ",
"X X . o X X X X X X   X X 1 r r ;.4.4.4.-.-.-.-.-.-.-.-.-.-.-.-.-.-.-.;.-.-.-.-.-.-.;.4.-.-.-.-.4.-.P 7 1 + X X X X X X X X . X ",
"X X X X X X X X X X   X X 1 r a ;.;.-.-.-.4.-.-.-.-.-.-.-.-.-.-.-.-.-.4.-.-.-.-.-.-.-.-.-.4.-.;.4.4.R 1 6 O X . X X X X X X X X ",
"X X X X X o X X X X - ; ; ( ( ( ;.-.-.-.-.-.-.-.-.-.-.-.-.-.-.-.-.-.-.-.-.4.-.-.-.-.-.-.-.-.-.-.4.;.,.` ` d , , X X X X X X X X ",
"o . X X X X X X X X , < < =.-.-.-.4.-.-.-.-.-.-.-.-.-.-.-.-.-.-.-.-.-.-.-.-.-.-.-.-.-.-.-.-.-.-.;.-.-.4.-.G r 2 o X X X X X X X ",
"X X X X X X X X X X , < < *.;.;.-.-.;.;.4.;.-.-.-.-.-.-.-.-.-.-.-.-.-.-.-.-.-.-.-.-.-.-.-.4.;.-.-.-.-.-.-.F < < X X X X X X X X ",
"X X X X X X X ; , , < 2 < h F F h F ( 4.-.-.-.-.-.-.-.-.-.-.-.-.-.-.-.-.-.-.-.-.-.-.-.-.>.h S S S S F F F a < < , : , X X X X X ",
"X X X X X X X , 7 < r < < < 2 < < r H ;.-.4.-.-.-.-.-.-.-.-.-.-.-.-.-.-.-.-.-.-.-.-.-.-.' 7 7 2 r r r , 7 < 7 < < < < X X X X X ",
". . . o X X X 4 < < < 2 2 2 2 2 2 < G ;.;.;.-.-.-.-.-.-.-.-.-.-.-.-.-.-.-.-.-.-.-.;.;.-._ < 2 2 2 2 2 2 2 < 1 2 2 < < X X X X X ",
"o . o . X X . , < < _ <.<.<.<.<.<.<.' g a H -.-.-.-.-.-.-.-.-.-.4.-.-.-.-.4.-.-.-.>.h g P ' >.>.>.,.<.<.<.<.<.<.a < 2 X X X X X ",
"X . o . X X X , < < >.-.4.;.;.4.-.;.' 7 7 F -.-.-.-.-.-.-.-.-.-.-.-.-.-.-.-.-.-.4.' 2 r G 4.4.4.;.-.;.4.;.-.-.-.a < 2 X X X o X ",
". X X . o X . , < 1 <.;.;.4.;.:.-.;.>.< 7 h -.-.-.-.-.-.-.-.-.-.-.-.-.-.-.-.-.;.-.>.r 2 G ;.;.;.;.-.-.;.-.;.-.;.a < < X X X X X ",
"o . . o X X X , 4 1 s s f f f h ;.;.' 2 7 F -.-.-.;.-.-.-.-.-.-.-.-.-.-.-.-.-.-.-.' 7 r G -.4.) f f f f f f f g 2 < < X X X X X ",
". o o . o X X , 2 i 2 2 2 2 r r ;.-.>.7 7 S -.-.-.-.-.-.-.-.-.-.-.-.-.-.-.-.-.-.-.' 2 r G -.;.( r r r r 7 7 7 7 < < < X X X X X ",
". o . . X X . , < 2 j r j j j a -.-.' 1 7 S -.-.-.-.-.-.-.-.;.-.-.-.-.-.-.-.-.-.-._ 7 7 F -.-.( j j j j j 7 7 7 , < , X X X X X ",
"X X X X X X X o o o 5.r.r.y.r.e.8 8 g <.*.=.-.-.-.-.-.-.-.-.-.-.-.-.-.-.-.-.-.-.-.-.*.<.( 8 8 / p.s.i.t.p.l 7 7 X X . X X X X X ",
"X X X X X X X X X X q.d.d.d.d.i., 7 a -.-.-.-.-.-.-.-.-.-.-.-.-.-.-.-.-.-.-.-.-.-.-.-.-.) r 6 [ d.d.d.d.d.l 7 7 X X X X X X X X ",
"X X X X o X X X X X O.r.r.y.y.0.8 a g -.-.-.-.-.-.-.-.-.-.-.-.-.;.-.-.-.-.-.-.-.-.-.-.-._ 8 8 ^ y.y.w.w.0.k 7 7 X X X X X X X X ",
"X X X X . X X X X X o + # 4.-.-.-.-.-.-.-.-.-.-.-.;.-.-.-.-.-.-.4.-.-.-.-.4.-.-.-.-.-.-.-.-.-.-.4.4.B M n 8 < < o X X X X X X X ",
"X X X X . X X X X X X X @ -.-.-.-.-.-.-.-.-.-.-.-.-.-.-.-.-.-.-.-.-.-.-.-.-.-.-.-.-.-.4.-.-.-.4.4.4.V M n 8 7 < X X X X X X X X ",
"X X X X X X X X X O O . O -.-.-.-.-.-.-.-.-.-.4.-.-.-.-.-.-.-.-.-.-.-.-.-.-.-.-.-.-.-.-.-.-.-.-.-.-.B m n 8 < 7 o X X X X X X X ",
"X X X X X X X X X . . . # =.-.-.-.-.4.-.-.-.-.-.-.-.-.-.-.-.-.-.-.-.-.-.-.-.-.-.-.-.-.-.-.-.4.-.-.-.-.;.;.g < < X X X X X X X X ",
"X X X X X X X o X X O . O -.-.-.-.-.-.-.-.-.4.4.-.-.-.-.-.-.4.-.-.-.-.-.-.-.-.-.-.-.-.-.-.-.-.-.-.-.-.-.;.g 2 2 X X X X X X X X ",
"X X X X X X X X X X . . O -.-.-.-.-.-.-.-.-.3.3.=.*.*.*.=.=.2.2.3.*.3.3.3.3.3.3.3.3.-.-.-.-.-.-.-.-.-.-.;.g < < o X X X X X X X ",
"X X X X X X X X X X X X + -.-.-.-.-.-.-.4.>.r 1 , 1 2 1 1 1 1 1 1 1 1 1 r 1 1 1 1 h -.-.-.-.-.-.-.-.;.-.-.f 2 < X X X . X X X X ",
"X X X X X X X X X o X X + -.-.-.-.-.-.-.;.>.r r 7 7 r r r 2 2 r 6 6 6 6 r r r r r S -.-.-.-.-.-.-.-.-.;.;.f < 2 X X X X X X X X ",
"X X X X X X X X X X O O # 4.-.-.4.4.-.4.4.1.x x x x x x z z z z x x z z z z z z x I ` ` >.-.-.-.-.-.,._ _ u : : X X X X X X X X ",
"X X X X X X X X X X 1 6 r -.-.-.;.;.>.8 6 ] k.k.k.k.k.k.k.k.k.k.k.k.k.k.k.k.k.k.k.8.6 6 G -.-.-.-.-.P < < o X X X X X . X X X X ",
"X X X X X X X X X X , < 8 -.-.-.4.4.>.6 6 ] k.k.k.k.k.k.k.k.k.k.k.k.k.k.k.k.k.k.k.f.1 6 G -.-.-.4.4.P 2 2 o X X X X X X X X X X ",
"X X X X X X X X X X < < 7 -.;.-.` ` ' W ] X.h.h.g.6.6.g.h.h.h.h.j.j.j.j.7.6.7.h.j.f.W W E Y Y &.;.4.P 2 2 + X X X X X X X X . X ",
"X X X X X X X X X X , 2 8 4.-.=.: , s d.d.d.a.d. .: : o.a.d.d.d.a.a.a.i.4 > s a.d.d.s.d.O.: # R ;.;.R 1 r o X X X X X X X X X X ",
"X X X X X X X X X X , 1 8 -.-.*.: 3 s d.d.d.d.a. .> : o.d.d.d.a.a.a.a.u.4 : p p.d.d.d.d.O.: : R ;.4.P r r o X X X X X X X . X X ",
"X X X X X X X X X X - : , $.$.#.: : f a.d.d.d.d. .: : ..d.d.d.d.a.d.a.p.> , y p.d.d.d.d.O.: : L %.%.D , : O X X X X X X X X X X ",
"X X X X X X X X X X X X O m M m : : s a.d.d.d.d. .: : o.d.d.d.d.d.d.a.i.> : s p.d.d.d.d.O.: : v m M % X X X X X . X . X . X X X ",
"X X X X X X X X X X X X O n M m : > s p.a.a.d.d.| : : ..d.d.d.a.d.d.d.i.> : p p.d.d.d.d.O.; : v n m % X . X X O X X O X X X . X ",
"X X X X X X X X X X X X + n M M q C S ~ ~ } d.d.9.{ { 9.d.d.d.d.d.d.d.p.c Q / p.d.q.! ! T q = b M n % X X X X . X X . X X . X X ",
"X X X X X X X X X X X X X m n M M M b : : c d.d.d.a.a.d.d.d.d.d.d.d.a.a.d.d.a.a.d.9.: : 0 M M M M M % X X X X X X X X X X X X X ",
"X X X X X X X X X X X X + n M M M M A : : c d.a.d.d.d.d.d.a.d.d.d.a.a.d.d.d.d.a.d.5.: : 9 M M M M M % X X X X X X X . X X X . X ",
"X X X X X X X X X X X X X n M m = * & + + t / { { { { { { { { { { { { { { / [ { } Q - + 3 * * b M M & X X X X X X X X X X X X X ",
"X X X X X X X X X X X X O M M m : : ; X X X X o X X X X X X o X X X X X o o X X X X X X + ; # v M M & X X X X X X X X X X X . X ",
"X X X X X X X X X X X X O n n m : : ; X X X X X X X X X o . X X X X X X X X X X X X X X o ; ; v M M $ X X X X X X O X X . X X X ",
"X X X X X X X X X X X X X e e w O o X X X X X X X X X X . X X X X X o X X X o X X X X X o + + 3 w e @ X X X X X X . X X X O X . ",
"X X X X X X X X X X X X X < 7 , X X X X X X X X X X X X X X X X X X X X X X X X X X X X X X X - 6 7 - X X X X X X X X . X X X X ",
"X X X X X X X X X X X X o r r , X X X X o X X X X X o X X X X X X X X X X X X X X X X X X X X - 6 7 - X X X X X X X X X . X X . ",
"X X X X X X X X X X X X X + - o X X X X X X X X . X X X X X X X X X X X X X X X X X X X X X X o + - O X X X . X . X X X X X X X ",
"X X X X X X X X X X X X X X X X X X X X X X X X . X X X X X X X X X X X X X X X X X X X X X X X X X X X X X O X X X X . . O X . ",
"X X X X X X X X X X X X X X X X X X X X . X X X . X X . . X X X X X X X X X X X X X X X X X X X X X X X . X X X X X . X X X X X ",
"X X X X X X X X X X X X X X X X X X X X O X X X X X X X X X X X X X X X X X X X X X X X X X X X X X X X X X X X X X X X X X . X ",
". X X X X X X X X X X X X X X X . X X X . X X . . X X . X X X X X X X X X X X X X X X X X X X X X X X X X X . X X X . O . X X . ",
"X X X X X X X X X X X X X X X X X X X X O X X X O X X X X X X X X X X X X X X X X X X X X X X X X X X X X . X X . X X . X X . O ",
"X X X X X X X X X X X X X X X X X X . X X X X X O . X . X X X X X X X X X X X X X X X X X X X X X X X X X X X O X X X X X X X X ",
"X X X . X X X X X X X X X X X X X X X X X X X X X X X X X X X X X X X X X X X X X X X X X X X X X X X X X X X . X X . O . X X . "
};
