/* XPM */
static char *result[] = {
/* columns rows colors chars-per-pixel */
"64 64 160 2 ",
"   c #050B18",
".  c #090E1C",
"X  c #0A101E",
"o  c #093319",
"O  c #133A1C",
"+  c #0E1423",
"@  c #101625",
"#  c #141B24",
"$  c #141B29",
"%  c #181F2E",
"&  c #171E30",
"*  c #181F30",
"=  c #1E2A25",
"-  c #16232B",
";  c #19202F",
":  c #1A2B2C",
">  c #183226",
",  c #1C3A26",
"<  c #1A332A",
"1  c #1E3929",
"2  c #1A2130",
"3  c #232F2D",
"4  c #26332D",
"5  c #29372C",
"6  c #223B29",
"7  c #2B3B2A",
"8  c #332E33",
"9  c #333136",
"0  c #413A2D",
"q  c #135215",
"w  c #1E5C16",
"e  c #1B551F",
"r  c #1D6B17",
"t  c #1B6419",
"y  c #1D6A18",
"u  c #2E671D",
"i  c #236D18",
"p  c #277019",
"a  c #2D7419",
"s  c #32761A",
"d  c #3E711F",
"f  c #36791A",
"g  c #3C7C1B",
"h  c #1B4324",
"j  c #1B5021",
"k  c #2F412B",
"l  c #334827",
"z  c #30432B",
"x  c #364C29",
"c  c #384D29",
"v  c #395727",
"b  c #3C5526",
"n  c #3B5229",
"m  c #2B6F28",
"M  c #3C6622",
"N  c #397935",
"B  c #476F1D",
"V  c #4D761D",
"C  c #4F781D",
"Z  c #527C1D",
"A  c #544E34",
"S  c #6B533E",
"D  c #73593D",
"F  c #4B6921",
"G  c #536B26",
"H  c #517323",
"J  c #567923",
"K  c #5A7F22",
"L  c #353A47",
"P  c #393E4A",
"I  c #3B404B",
"U  c #5D5343",
"Y  c #61584B",
"T  c #6B5B48",
"R  c #725B45",
"E  c #4A6C4F",
"W  c #506245",
"Q  c #6E604D",
"!  c #656972",
"~  c #72747B",
"^  c #825D41",
"/  c #B87E4A",
"(  c #8C7A60",
")  c #4D871C",
"_  c #5C841F",
"`  c #568D1C",
"'  c #5B8D1D",
"]  c #5C911D",
"[  c #618C1F",
"{  c #63941E",
"}  c #69961F",
"|  c #6E9C1F",
" . c #709D1F",
".. c #5B8222",
"X. c #628A21",
"o. c #6A9620",
"O. c #6E9C22",
"+. c #709D28",
"@. c #6B8C3F",
"#. c #739442",
"$. c #679763",
"%. c #6C8371",
"&. c #79A276",
"*. c #85AB46",
"=. c #8BB053",
"-. c #92B45D",
";. c #9B8464",
":. c #B5976D",
">. c #B79B74",
",. c #97B866",
"<. c #9FBD6E",
"1. c #98B370",
"2. c #A3BE77",
"3. c #D49352",
"4. c #E19653",
"5. c #E49A56",
"6. c #FFA557",
"7. c #F1A159",
"8. c #FFA658",
"9. c #FCA959",
"0. c #CDAA79",
"q. c #D2A772",
"w. c #D5B27E",
"e. c #FEBE7A",
"r. c #FBC07D",
"t. c #787C83",
"y. c #82868C",
"u. c #8E9E93",
"i. c #8F9299",
"p. c #9DBD9A",
"a. c #A8BD89",
"s. c #ABBE95",
"d. c #9D9FA2",
"f. c #A8AAAE",
"g. c #ACAEB1",
"h. c #AEB0B3",
"j. c #B9BBBD",
"k. c #E3BB81",
"l. c #EABE83",
"z. c #ADC685",
"x. c #AEC887",
"c. c #B8CE96",
"v. c #BCD19B",
"b. c #BCCBA7",
"n. c #FEC684",
"m. c #FEC987",
"M. c #FFCA8A",
"N. c #C3D5AA",
"B. c #D0DFBC",
"V. c #D2E0BC",
"C. c #CECFD1",
"Z. c #D4D5D6",
"A. c #D6E3C2",
"S. c #DCE7CC",
"D. c #E2ECD6",
"F. c #E4E5E5",
"G. c #E6E7E8",
"H. c #F3F4F4",
"J. c #F8FAF5",
"K. c #FFFFFF",
/* pixels */
"                                                                                                                                ",
"                                                                                                                                ",
"                                                                                                                                ",
"                                                                                                                                ",
"                                                                                                                                ",
"                                                                                                                                ",
"                                                                                                                                ",
"                                                                                                                                ",
"                                                  . . . . . . .   . . . . . . . .                                               ",
"                                                . & % ; ; ; % ; % % % % & % % ; + .                                             ",
"                                                . & & ; & & ; ; * * * % % % % ; +       .   .         .       .                 ",
"                                        $ $ $ $ = J J J J J J J J J J J J J J J b $ $ $ @ .                                     ",
"                                        $ % ; ; 4 | |  .| | | | | | | | |  .| | F 2 ; ; % .       .                             ",
"                                    . X 7 x x x b O.| | | | | | | | | | | | | | J x x x x # X .                                 ",
"                                    ; ; ..| O.| | | | | | | | |  .| | | | | | | O.| | | | 5 ; +   .                             ",
"                                  . ; ; ..| } | | | | | } | | | | | O.| | | | | | | | | | 5 ; +                                 ",
"                              . $ % Z K o.| 2.A.A.V.A.A.A.-.| | | | | | | | z.D.D.S.A.A.A.@.J l $ @ .                           ",
"                              . % 2  .| | | v.K.K.K.K.K.K.<.| O.| | | | | | c.K.K.K.K.K.K.*.| b & $                             ",
"                              . % %  .| =.,.B.K.H.g.h.h.g.s.<.*.| { C V V V s.K.K.K.J.g.g.1.,.W & $                             ",
"                              . % 3 | | A.K.K.K.Z.; 2 ; 2 j.K.v.| Z o o o o u.K.K.K.G.; ; C.K.t.& $   .                         ",
"                        . .   X ; ;  .| A.K.K.K.Z.% ; ; 2 j.K.v.| Z o o o o u.K.K.K.G.; 2 C.K.t.& $                             ",
"                          X % 7 X.X.| } A.K.K.K.Z.% ; & 2 j.K.p.p i t t t t m N &.K.G.; * C.K.a.X.G $ $                         ",
"                          + 2 7  . .| | A.K.K.K.Z.% 2 2 2 j.K.p.y y y y y y y y $.K.G.; * C.K.x.O...& %                       . ",
"                        . + 2 x | | | O.A.K.K.K.F.! ! ! ! d.g.%.j j j j j j j j E g.f.y.y.F.K.x.| K ; %         .               ",
"                          @ % 7 | | | | A.K.K.K.K.K.K.K.K.~ ; 2 ; ; ; ; * 2 2 2 * 2 L K.K.K.K.x.O.K & &                 .       ",
"                          @ % 7 | | | | B.J.J.K.K.K.K.K.K.~ 2 ; ; ; ; ; 2 2 3 2 2 * L K.K.K.K.x.O.K & &                         ",
"                          @ 2 x | | | | O.+.z.K.K.K.K.I P >.l.k.k.k.k.k.k.l.l.l.l.l.w.L L #.*.+.O.K & & .                       ",
"                          @ 2 7 | | | | | } z.K.K.K.K.2 2 :.M.M.M.M.M.M.M.M.M.m.m.m.k.% & ..| | O.K & &               .         ",
"                          + % 7 | |  .| | | -.N.b.i.i.S S q.M.0.( ;.M.M.M.M.:.( :.M.n.T R G F [ O.K % %                         ",
"                          + 3 7 | | } | | | | | X.* % 5.8.e.M.;.& 9 M.M.M.M.Y & Q M.m.9.6.0 # F | K % %                         ",
"                          # % l | | | | | | | | X.& * 3.8.e.M.;.; 9 M.M.M.M.Y * Q M.M.8.6.0 # F | K ; %                         ",
"                          + % 7 | | | | }  .| O.X.% * 4.8.e.M.;.; 9 M.M.M.M.Y * T M.M.8.8.0 # B | K ; %                         ",
"                          @ % k | | | | | | |  .X.% ; 4.8.e.M.;.2 9 M.M.M.M.U 2 Q M.m.8.8.0 # F | K % %                         ",
"                  @ @ @ @ $ * 6 g ) g g { | | | X.; ; 4.8.e.M.;.2 9 M.M.M.M.Y - Q M.M.8.8.0 # B | K % % @ + @ @ .               ",
"                . * % * 2 ; ; < y y y y ' | | | X.% ; 3.8.e.M.;.2 9 M.M.M.M.Y - Q M.M.8.8.8 # B  .K % % * % ; % +               ",
"                . % % & * * & < t t t y ' | | | X.% ; 3.7.e.m.;.* 8 M.m.m.r.Y # R n.e.5.5.A = B  .K % % 3 : ; ; +               ",
"                . % % X. . . .| | | | | |  .| | _ o o # # / 6.8.9.9.6.6.6.6.9.9.9.8.4.# # _  .|  .K 2 : r y < % +               ",
"                . % ; X.| | | | | | | | | | | | [ o o # # / 6.6.8.6.6.6.6.6.6.6.8.8.4.# # ..| |  .K ; : r r < % +               ",
"      .           @ @ c n x c c x c | | | | | | } B V O O A D ^ ^ ^ ^ ^ ^ ^ ^ ^ ^ ^ D O O ' | |  .K % ; h h # + .               ",
"                      $ 2 2 ; ; ; ; { | | | | | | |  .q q > ; ; 2 % ; ; ; ; ; ; 2 2 - q q ' | | | K % % 2 2 +                   ",
"                      @ $ ; 2 ; : : o.| | | | | O.|  .w w , : - : - : 2 : : : : < : < w w ] | | { H & & $ & X                   ",
"                        . @ ; 1 r r | | | | | | | | |  . .s y y y y r r r r y y y y r O. .| | g r e ; &                         ",
"                          @ ; 1 y y | | | | | |  . .|  .| s r y y r r r r r r r r r r O.| | | g y j & &                         ",
"                          + ; 1 y y f f { | | | } | | | | ' ` ` ..` ` ` ` ` ` ` ` ` ` O.| | | M h , + +                         ",
"                        . + ; < y y y i ] | | | | }  .|  .} }  .| | | | | |  .| O.O.| | |  .| n 2 $ .                           ",
"                          + $ > w t y y ] | | | | |  .|  . . . .| | |  .| | | | | | | |  .} { x 2 -                             ",
"                              . $ $ y y ] | | | |  .| | | |  . . .| | | | | | | | | | | | a y h ; $                             ",
"                              + $ $ y y ] | | | | | | | | |  .O.| |  .| |  .|  . .| | | | a r h ; $                             ",
"                                . . 3 = u f ) | ] a a k 7 l z z z z z z z z z z v s s a s 6 > # X X                             ",
"                                    % % e t ) | ] r r ; % % * 2 ; * % % ; 2 2 * , y y r r = ; @                                 ",
"                                    $ @ h e d | ' e e $ $ $ $ # $ $ $ $ $ # % % 1 f a e e - # +                                 ",
"                                    .   # ; b | X.; ;                       $ * x O.[ ; ; X                                     ",
"                                .     . $ % F  .X.* 2                       # * x | X.; ; .                                     ",
"                                        $ % $ 5 3 2 2                       # * : 5 5 ; - .                                     ",
"                                        $ * % % * 2 2         .             $ 2 ; 2 ; ; - .                                     ",
"                                  .     @ $ # # $ @ $                       + @ $ @ $ $ #                                       ",
"                                                                                                                                ",
"                                                                                                                                ",
"                                                                                                                                ",
"                                                                                                                                ",
"                                                                                                                                ",
"                                                                                                                                ",
"                                                                                                                                ",
"                                                                                                                                "
};
