/* XPM */
static char *result[] = {
/* columns rows colors chars-per-pixel */
"64 64 6 1 ",
"  c #2F2E2F",
". c #85578E",
"X c #BE9BB0",
"o c #564064",
"O c #3E2F5A",
"+ c white",
/* pixels */
"                                                                ",
" .XXXXXXXXXX. .XXXXXXXXXXXXXX. .XXXXXXXXXXXX. .XXXXXXXXXXXXXX. .",
" X..........X X.....o...o....X X............X X.....o...o....X X",
" ..oooo.ooo.. ..oo.ooo.oooooo. .oo.oooo.ooo.. ..oo.ooo.oooooo. .",
" .ooooooooOO. .OOooooooooooOoo ooooooOooooOO. .OOooooooooooOoo o",
" o.ooOOOOOOOO OOOOOOooOOOOOOOO OOOOOOOOOOOOOO OOOOOOooOOOOOOOO O",
" OooOOOOOOOO   OOOOOOOOOOOOOO   OOOOOOOOOOOO   OOOOOOOOOOOOOO   ",
"                                                                ",
" o...................   ...........   ...............   ........",
" ..............oo..... ......oo..... ..........oo..... ......oo.",
" ..ooo.oo.ooo.oooo.o.. ..o.ooooo.o.. ..oo.ooo.oooo.o.. ..o.ooooo",
" .o.oooooooOoooOOOooO. .OooooOOoooO. .OooooOoooOOOooO. .OooooOOo",
" .oooooOooOOOooooooOOO OOOooOOoooOOO OOOooOOOooooooOOO OOOooOOoo",
" o.oooOOOOOOOOOOooOOOO OOOOOOOOOOOOO OOOOOOOOOOOooOOOO OOOOOOOOO",
" OooOOOOOOOOOOOOOOOOO   OOOOOOOOOOO   OOOOOOOOOOOOOOO   OOOOOOOO",
"                                                                ",
" o........   ............   ..............   ............   ....",
" ......o... ......o....... ...o........o... ......o....... ...o.",
" ...o.ooo.. ..oo.oooo.oo.. ..oooo.ooo.ooo.. ..oo.oooo.oo.. ..ooo",
" ..ooOoooo. .oooooOooOooo. .ooOooooooOoooo. .oooooOooOooo. .ooOo",
" .o.ooOoooO OooooOOoooOooO OoooOooOOooOoooO OooooOOoooOooO OoooO",
" .ooooOOoOO OOoOOOooOoooOO OOooooOOoooOOoOO OOoOOOooOoooOO OOooo",
" o.ooOOOOOO OOOOOOOOOOoOOO OOOoOOOOOoOOOOOO OOOOOOOOOOoOOO OOOoO",
" OoOOOOOOO   OOOOOOOOOOOO   OOOOOOOOOOOOOO   OOOOOOOOOOOO   OOOO",
"                                                                ",
" o..................   ..............   ............   .........",
" ...o........o...o... ........o....... ......o...o... ........o.",
" ....o...oo.ooo.ooo.. ..oo.oooooo.oo.. ..oo.ooo.ooo.. ..oo.ooooo",
" ..oo.O.OooooooOoooO. .OooooooOoOoooO. .OooooooOoooO. .OooooooOo",
" .ooooOOOOoOOoooooOOO OOOooooOOooooOOO OOOoOOoooooOOO OOOooooOOo",
" o.ooOOOOOOOOOOOoOOOO OOOOoOOOOOOoOOOO OOOOOOOOOoOOOO OOOOoOOOOO",
" OoOOOOOOOOOOOOOOOOO   OOOOOOOOOOOOOO   OOOOOOOOOOOO   OOOOOOOOO",
"                                                                ",
" o..........   ..............   ............   ..............   ",
" ....o....... ......o...o..... ......o....... ......o...o..... .",
" ..oooo.ooo.. ..oo.ooo.oooooo. .oo.oooo.ooo.. ..oo.ooo.oooooo. .",
" .ooooooooOO. .OOooooooooooOoo ooooooOooooOO. .OOooooooooooOoo o",
" o.ooOOOOOOOO OOOOOOooOOOOOOOO OOOOOOOOOOOOOO OOOOOOooOOOOOOOO O",
" OooOOOOOOOO   OOOOOOOOOOOOOO   OOOOOOOOOOOO   OOOOOOOOOOOOOO   ",
"                                                                ",
" o...................   ...........   ...............   ........",
" ..............oo..... ......oo..... ..........oo..... ......oo.",
" ..ooo.oo.ooo.oooo.o.. ..o.ooooo.o.. ..oo.ooo.oooo.o.. ..o.ooooo",
" .o.oooooooOoooOOOooO. .OooooOOoooO. .OooooOoooOOOooO. .OooooOOo",
" .oooooOooOOOooooooOOO OOOooOOoooOOO OOOooOOOooooooOOO OOOooOOoo",
" o.oooOOOOOOOOOOooOOOO OOOOOOOOOOOOO OOOOOOOOOOOooOOOO OOOOOOOOO",
" OooOOOOOOOOOOOOOOOOO   OOOOOOOOOOO   OOOOOOOOOOOOOOO   OOOOOOOO",
"                                                                ",
" o........   ............   ..............   ............   ....",
" ......o... ......o....... ...o........o... ......o....... ...o.",
" ...o.ooo.. ..oo.oooo.oo.. ..oooo.ooo.ooo.. ..oo.oooo.oo.. ..ooo",
" ..ooOoooo. .oooooOooOooo. .ooOooooooOoooo. .oooooOooOooo. .ooOo",
" .o.ooOoooO OooooOOoooOooO OoooOooOOooOoooO OooooOOoooOooO OoooO",
" .ooooOOoOO OOoOOOooOoooOO OOooooOOoooOOoOO OOoOOOooOoooOO OOooo",
" o.ooOOOOOO OOOOOOOOOOoOOO OOOoOOOOOoOOOOOO OOOOOOOOOOoOOO OOOoO",
" OoOOOOOOO   OOOOOOOOOOOO   OOOOOOOOOOOOOO   OOOOOOOOOOOO   OOOO",
"                                                                ",
" o..................   ..............   ............   .........",
" ...o........o...o... ........o....... ......o...o... ........o.",
" ....o...oo.ooo.ooo.. ..oo.oooooo.oo.. ..oo.ooo.ooo.. ..oo.ooooo",
" ..oo.O.OooooooOoooO. .OooooooOoOoooO. .OooooooOoooO. .OooooooOo",
" .ooooOOOOoOOoooooOOO OOOooooOOooooOOO OOOoOOoooooOOO OOOooooOOo",
" o.ooOOOOOOOOOOOoOOOO OOOOoOOOOOOoOOOO OOOOOOOOOoOOOO OOOOoOOOOO",
" OoOOOOOOOOOOOOOOOOO   OOOOOOOOOOOOOO   OOOOOOOOOOOO   OOOOOOOOO"
};
