/* XPM */
static char *result[] = {
/* columns rows colors chars-per-pixel */
"64 64 156 2 ",
"   c #050A17",
".  c #050B18",
"X  c #080E1B",
"o  c #051319",
"O  c #0A111D",
"+  c #131C1A",
"@  c #192419",
"#  c #13301F",
"$  c #0E1422",
"%  c #101625",
"&  c #131B24",
"*  c #161D2C",
"=  c #181F2F",
"-  c #171E30",
";  c #181F30",
":  c #0D2729",
">  c #132324",
",  c #1F2027",
"<  c #162A21",
"1  c #14222D",
"2  c #19212F",
"3  c #1B2A2C",
"4  c #1B3827",
"5  c #1B3E25",
"6  c #1C342A",
"7  c #192130",
"8  c #1E2830",
"9  c #222E2C",
"0  c #223125",
"q  c #27332E",
"w  c #28352F",
"e  c #2C3C2D",
"r  c #31362E",
"t  c #272731",
"y  c #282732",
"u  c #2B2B32",
"i  c #393536",
"p  c #5B3119",
"a  c #18451C",
"s  c #154B1A",
"d  c #1C5B1D",
"f  c #1D6B17",
"g  c #1C611B",
"h  c #1D6A18",
"j  c #25661C",
"k  c #226D19",
"l  c #26701A",
"z  c #287219",
"x  c #31751A",
"c  c #3D7D1C",
"v  c #1B4324",
"b  c #1C4D22",
"n  c #1B5020",
"m  c #214B24",
"M  c #2F422C",
"N  c #32442B",
"B  c #36492E",
"V  c #394F2A",
"C  c #205620",
"Z  c #2C5D21",
"A  c #3E5629",
"S  c #367335",
"D  c #3A7E37",
"F  c #7F4018",
"G  c #724D1A",
"H  c #49651F",
"J  c #457E1D",
"K  c #4C7E1F",
"L  c #445F27",
"P  c #4F4030",
"I  c #494239",
"U  c #584738",
"Y  c #4B5432",
"T  c #6C533E",
"R  c #456425",
"E  c #496525",
"W  c #4F6D26",
"Q  c #486528",
"!  c #537425",
"~  c #567924",
"^  c #5A7F23",
"/  c #607121",
"(  c #373C47",
")  c #383F49",
"_  c #4C5B42",
"`  c #6F5740",
"'  c #617649",
"]  c #7A6A54",
"[  c #5F646D",
"{  c #626870",
"}  c #6A7077",
"|  c #73777E",
" . c #994A18",
".. c #B76E18",
"X. c #84623F",
"o. c #D06217",
"O. c #8C6442",
"+. c #906A45",
"@. c #9D6F47",
"#. c #9D7046",
"$. c #9B7D59",
"%. c #A06F47",
"&. c #A67947",
"*. c #B37E4C",
"=. c #44821B",
"-. c #4B851D",
";. c #4E891D",
":. c #5E861E",
">. c #538A1D",
",. c #588F1D",
"<. c #5D911D",
"1. c #61841C",
"2. c #63951E",
"3. c #6B971F",
"4. c #6E9C1F",
"5. c #7F921E",
"6. c #709E1F",
"7. c #5E8622",
"8. c #4E8631",
"9. c #608722",
"0. c #638C21",
"q. c #679220",
"w. c #699420",
"e. c #6C9820",
"r. c #4C8447",
"t. c #AE8A5E",
"y. c #C8874E",
"u. c #CB894F",
"i. c #D69352",
"p. c #DA9251",
"a. c #E29F51",
"s. c #F6A557",
"d. c #FEA657",
"f. c #FFA658",
"g. c #C79763",
"h. c #D29F66",
"j. c #C7A474",
"k. c #C9A474",
"l. c #FEAE64",
"z. c #FDB46D",
"x. c #FEBA74",
"c. c #767A81",
"v. c #7A7D85",
"b. c #8D9196",
"n. c #919396",
"m. c #A7A8AA",
"M. c #B3B4B6",
"N. c #FFCA8A",
"B. c #C1C3C0",
"V. c #CECFCF",
"C. c #D0D1D2",
"Z. c #DDDDDE",
"A. c #E5E5E7",
"S. c gray91",
"D. c #F4F4F4",
"F. c #FEFEFE",
/* pixels */
". . . . . . . . . . . . . . .   . . . . . . . . . . . . . . . . . . . . . . . .   . . . . . . . . . . . . . . . .   . . . . . . ",
". . . . . . . . . . . . . . .   . . . . . . . . . . . . . . . . . . . . . . . . . . . . . . . . . . . . . . . . . . . . . . . . ",
". . . . . . . . . . . . . . . . . . . . . . . . . . . . . . . X . . . . . . . .     . . . . . . . . .   . . . . . . . . . . . . ",
". . . . .   . . . . . . . . . . . . . . . . . . . . . . . . . . . . . . . . . .   . . . . . . . . X   . . . . . . . . . . . . . ",
".   . . . . . . . . . . . . . . . . . . . X . . . . . . . . . . . . . . . . . . . . . . . . . . . .       . . . . . .   . . . . ",
"  . . . . . . . . . . . . . . . X . . . . . . . . . . . . . . . . X . . . . . . . $ % $ $ % % % % % % % X   . . .   .   . . . . ",
". . . . . . . . . . . . . . . . . . . X . . . . . . . . . . X . . X . . X . . . X = = = = = = = = = = = X . . . . .     . . . . ",
". . . . . . . . O . + @ @ o o o X . . . . X . X X X X . X X X X X X X X X X . X . 2 3 3 q q q q q 3 = = X . . . . .     . . . . ",
"X .           $ 2 2 ! 4.6.z f f o o . . . $ 7 7 7 7 7 2 7 7 7 7 - - - - ; 7 % % % h h k 6.4.6.6.4.L - - X . . . . . . .   . .   ",
"      X X     % 2 2 ! e.6.l h h o . $ . o $ 2 2 2 2 7 7 - 7 7 1 - - - - ; 7 % % % g h k 6.e.4.4.4.L 2 - X . . . . . . . . . . . ",
"  .         . X O $ G ....1.;.;.& & : s s Z 7.7.7.7.7.7.7.9.7.7.9.9.9.9.9.^ C s s ;.7.-.N V V V V 0 $ $ X . . . . . .   . . . . ",
".     X     . . . . F o.o.5.e.e.2 * 6 f h c e.6.4.4.4.6.4.e.4.4.e.6.6.e.4.4.k h f 2.e.q.* = = = 2 % X $ . . . . .   . .   . .   ",
".   . . . . . X . . p  . ./ ~ ~ A A R -.=.,.4.4.4.6.4.4.4.4.4.4.4.4.4.4.4.4.J c c ~ ~ ~ ` ` U = 2 $ X X . . . . .   . . . .   . ",
". . . . . . . . . . . . X 1 2 2 4.4.4.4.6.4.6.4.4.e.4.4.4.4.6.4.4.4.4.4.4.4.4.6.e.8 7 u s.f.t.2 2 $ . . . . . . . . . . . . . . ",
". . . . X . . . . . . . . 9 q q e.4.4.4.e.6.4.4.4.4.4.4.6.4.4.4.4.4.4.4.4.4.4.4.e.w 6 r a.a.&.3 8 % . . . . . . . . . . . . . . ",
". . . . . . . . . . . . . :.4.4.4.4.4.4.4.6.4.6.4.4.4.6.e.4.4.4.4.4.4.e.4.4.4.e.4.4.e.e.k k f f f b - 7 O . . . .   . . . . . . ",
". . . . . . . . . . . . X 1.4.4.4.4.6.4.4.6.4.4.e.4.4.e.4.4.4.4.4.4.4.3.4.4.4.4.4.4.4.4.k f h f f b 7 7 O . . . . . . . .     . ",
". . . . . . . . . . | M.M.8.=.=.4.4.6.6.4.~ N M N N N N M M 4.4.4.4.4.4.4.4.4.4.4.4.4.4.,.,.-.h f v 7 7 X . . . . . . . .   . . ",
". . . . . . X   . . m.F.F.D h k 4.e.6.e.4.W 1 7 7 ; 7 7 - 7 4.4.4.4.3.6.4.e.4.4.4.4.4.4.4.4.<.f h v 7 2 O . . . . . . . . . . . ",
". . . . . . . . . . m.F.F.D f h >.>.>.W W ' c.c.| | | c.| } W ! ^ 6.6.6.3.6.4.4.4.4.4.4.4.4.2.=.c Z 5 5 & $ $ . . . . . . . . . ",
"  X .   . . . X . . m.F.F.D h h h h g - 1 c.F.F.F.F.F.F.F.A.2 2 B 6.3.6.4.4.4.6.4.4.3.e.4.4.e.4.e.=.f f 4 7 = . . . . . . . . . ",
"  . .   . X X . X X n.Z.Z.S g g g g C - 7 | D.D.D.D.D.F.F.S.( ( _ w.2.4.4.4.4.e.4.4.4.4.4.4.6.4.e.=.k k 4 7 * . . . . . . . .   ",
"    X   X ; ; ; = = 2 2 7 2 2 2 7 7 7 7 7 7 t 8 t 8 2 D.F.F.F.F.V.t 7 Q 4.4.6.e.e.l h k 6.4.4.4.6.4.4.4.B 2 2 . . . . . . . . . ",
". .   X X ; ; ; 2 7 ; 7 7 7 7 2 7 7 7 7 7 7 7 2 2 2 * D.F.F.F.F.V.7 7 Q 4.4.6.6.e.l h k 6.4.4.6.e.6.4.4.N 2 = . . . . . . . . . ",
". . % * u j.j.k.k.k.k.k.k.k.k.k.j.k.k.k.k.g.y.y.U 7 - [ { v.F.F.C.7 7 Q 4.4.4.4.4.<.<.<.4.4.4.4.4.4.4.4.N 7 =   . . . . . . . . ",
"X . ; ; ( N.N.N.N.N.N.N.N.N.N.N.N.N.N.N.N.x.f.f.` - 7 ; 7 ) F.F.C.; 7 Q 4.4.4.4.4.4.e.4.4.4.4.e.4.4.4.6.B = =   . . . . . . . . ",
"    = = i z.z.h.] ] g.z.z.z.z.z.$.$.t.z.z.l.f.f.T 2 = c.v.b.F.F.C.7 2 Q 4.4.4.4.4.4.4.6.4.4.4.4.4.4.6.4.N 2 =   . . . . . . . . ",
".   = = i d.f.*.= ; @.f.f.d.d.s.y 7 I f.f.f.f.f.T 2 * D.F.F.F.F.C.7 7 Q 4.4.4.4.4.4.4.e.4.4.4.4.4.4.6.6.N 2 = . . . . . . . .   ",
". . = = i f.f.*.2 7 #.f.f.f.f.s.y 7 I f.f.f.f.f.T = & D.F.F.S.S.B.w w W 4.4.4.e.4.4.4.4.4.4.4.w.2.w.w.w.N ; ; X o . . . .   . . ",
"  X = = i f.f.*.2 7 #.f.f.f.d.s.y 7 I f.f.f.f.f.T 2 & D.F.D.7 2 M 4.6.4.4.4.6.6.4.4.4.6.4.6.! ; = = ; ; ; ; ; = ; & . . . . . . ",
". X ; ; i f.f.*.= 7 %.f.f.f.d.s.y 7 I f.f.f.f.f.T 2 * D.F.F.2 = N 4.4.4.4.4.4.6.4.4.4.4.4.4.! = ; ; ; ; ; ; ; ; ; *   . .     . ",
". . ; ; i f.f.*.2 2 #.f.f.f.d.s.t 1 I f.f.f.f.f.T 2 = r.r.r.g h z 4.4.4.6.4.4.4.4.4.4.4.4.4.w.9.9.9.9.9.9.9.^ ; 7 & . . . . . . ",
"    = = i d.f.*.2 2 @.f.f.d.f.s.t 2 I f.f.f.f.f.T - * h h h h h x 6.4.4.4.4.4.4.4.4.4.4.4.4.4.4.4.4.4.4.6.6.4.* ; * . . . . . . ",
"X X $ $ & X.X.X.O.O.u.f.f.f.f.s.O.O.&.f.f.p.@.@.Y v 5 j h f h h z W W 7.4.4.4.4.4.4.4.4.4.6.q.R R R H H E Q E O $ $ . . . . . . ",
"    X   X X O U f.f.f.f.f.f.f.f.f.f.f.f.f.&.2 2 n h h h h f h h d ; 7 Q 4.4.4.4.4.4.4.6.4.4.7.2 2 , & + 1 2 *   . .   . . . . . ",
"        X X O P i.i.i.i.i.i.i.i.i.i.i.i.p.+.2 2 v d d d d d d d C e e ! 4.4.4.4.4.4.4.4.4.4.7.q w 0 < < 2 7 - . . . . . . . . . ",
"        . . . X = * * ; ; ; * ; - - 2 * 1 : : : 1 2 1 2 7 3 ; 7 M 4.4.4.4.4.e.6.4.6.4.4.4.4.4.4.4.=.h h 6 - 2 .     . . . . . . ",
"X   X   . . . % = 2 2 ; 7 ; 7 ; 7 7 7 2 2 1 : : 1 2 7 7 7 1 - ; M 6.6.4.4.4.4.4.4.4.4.4.4.4.4.4.4.=.h h 6 2 *       . . . . .   ",
". .     . . . X X X a g g g d g g d g g g d g g K 0.0.0.0.7.0.0.0.4.4.4.4.4.4.6.4.4.4.4.4.4.4.4.4.=.h h 6 2 2 .       . . . . . ",
". .   . . . . . . . s h h h f h h h h h h h f f >.4.4.4.4.4.4.4.4.4.4.6.4.4.4.4.4.4.4.4.4.4.4.4.4.=.h f 6 * - . .   . . .   . . ",
"  . .   . . . . . . # v v J J =.=.=.=.=.-.=.=.-.2.4.4.4.4.4.4.4.4.4.4.4.4.4.4.4.4.4.4.4.4.4.2.J c Z v v > $ $ . . .     . . . . ",
". . . . . . . . . . & = = 9.4.4.6.e.4.4.6.4.4.4.e.4.4.4.4.4.6.e.4.4.4.4.4.4.e.4.4.4.4.4.4.4.>.f f 5 2 - X . .     .   . . . . . ",
". . . . . .   . . . % * * ^ q.q.e.6.e.6.6.2.2.2.2.2.2.2.2.2.<.<.<.<.<.<.<.<.4.6.4.4.4.4.2.:.J d d 4 * * X . . . . .   .     . . ",
"  . .   . . . . . . . . . & ; ; e.e.6.6.6.-.h f h h h h f h h f f f f f f h <.e.4.4.4.4.h h b ; 2 $ . . . . . . . .       . . . ",
". . . . . . . . . .   . . * 2 2 e.6.6.e.4.;.h h h h h h h f h h f f f h h h <.e.4.4.4.4.f f b ; 2 $ . .   . .   .     . . . . . ",
". . .   . . . . . . . . . X X X j k k k k d 3 3 3 6 3 3 3 1 3 3 3 8 1 b f h <.e.4.4.4.3.3 1 & X . . . . . . . . .   . . . . . . ",
".   . . . . . . . . . . . . . X h h h h f b 2 2 2 2 * = 7 = - ; 2 2 2 b h h <.e.4.e.4.4.3 2 & . . . . . . . . . . . . . . . .   ",
". . . .   . .   . . . . . . . . 5 5 m f f b 2 2 % $ $ $ $ $ $ $ $ $ $ < v v 7.e.4.4.4.4.2 = & X . . . . . . . . . . . . . . . . ",
". . . . . . . . . . . . . . . . 2 2 6 f h b 2 2 % . . . . . . . . .   % = 2 ~ 4.6.6.6.3.7 ; * . . . . . . . . . . . . . . . . . ",
".   . . X . . . . .   . .   . . * 2 3 d d b = 2 O   . . . . . . .     % 2 ; L ~ ~ ! ~ ~ 7 ; % . . . . . . . . . . . . . . . . . ",
"  X . . . . . . . .   . .     . * 7 - 2 ; = 7 2 % . . . . . . . . . . % 2 = = 2 = 2 = = ; ; % . . . . . . . . .   . . . .   . . ",
". . . . . . . . . . . . . . . . * = 2 7 = 2 = = $ . . . . . . . . . . % = 2 = ; = = ; = = = * . . X . . . . . . . . . . . . . . ",
". . . . . . . . . . . . . . . . X X . X X . o . .   . . . . . .   . . X X . X X X X X X . X . . . . . . . . . . .   . . . . . . ",
". . . . . . . . . .   . . . . . . . . . . . . . . . . . . . . . . .     . . . . . . . . . . . X . X . . . . . . . . .   . . . . ",
". . . . . . . .   .   . . . . . . . . . . . . . . . . . . . . . . X . . . . . . . . . . .   . . . . . . . . . . . .   . . . . . ",
". . . . . . . . . . . . . . . . . . . . . . . . . . . . . . . .   . . . . . . . . . . . . . . . . . . . . . . . .   . . . . . . ",
".   . . . . . . . . . . . . . . .   . .   . . . . . . . . . . . . . . . . . .   . . . . . . . . . . . . . .   . . . . . . . . . ",
". . . . . . . . . .   . . .   . . . . . . . . . . . . .   . . . . . . . . . . . . . . . . . . . . .   .   . . .   .   . .     . ",
". . . .   . . . . . . . . . . . . .   . . . . . . . . . . . . .   . . . . . . . . . . . . . . . . . . . . . . . . .   . . . . . ",
". . . . . . . . . . . . . . . . . . . .   . .   . . . . . . . . . . . . . . . . .   . . . . .   . . . . . . . . . . . . . . . . ",
". . . . . . . . . . . . . . . . . . . . . . . . . . . .   . . . . . . . . . . .   . .   . . . . . . . . . . . . . . . .   . .   ",
". . . . . . . . . . . . . . . . . . . . . . . . . . . . . . . . . . . . . . . . . . . . . . .   . . . . . . . .   .     . . . . ",
". . . . .   . . . . . . . . . . . . . . . . . . . . . .   . . . . . . . . . . . . . . . . . . . . . . .   . . . .     . . . . . ",
". .   . . . . . . . . . . . . . . . . . . . . .     . . .     . . . . . . . . . . .   . . . . .   . .     . . . .     . . . .   "
};
