/* XPM */
static char *result[] = {
/* columns rows colors chars-per-pixel */
"64 64 148 2 ",
"   c #050A17",
".  c #050B18",
"X  c #090E1C",
"o  c #0B101E",
"O  c #0C2C1D",
"+  c #093219",
"@  c #113C17",
"#  c #113B18",
"$  c #0D1422",
"%  c #101625",
"&  c #121A25",
"*  c #151C2C",
"=  c #181F2F",
"-  c #171E30",
";  c #181F30",
":  c #102724",
">  c #1C2725",
",  c #132C23",
"<  c #17222C",
"1  c #19202F",
"2  c #1C2A2D",
"3  c #163C21",
"4  c #1A3C26",
"5  c #1A322A",
"6  c #1E3A29",
"7  c #1A2130",
"8  c #272426",
"9  c #2A2727",
"0  c #24262E",
"q  c #212D2E",
"w  c #25322D",
"e  c #2A3A2B",
"r  c #212734",
"t  c #272D39",
"y  c #312D32",
"u  c #3C3A37",
"i  c #16411E",
"p  c #184C1C",
"a  c #1B541E",
"s  c #1C5C1D",
"d  c #385E1E",
"f  c #1D6B17",
"g  c #1D641A",
"h  c #1D6A18",
"j  c #226D18",
"k  c #2C6C1C",
"l  c #2A7119",
"z  c #3B751D",
"x  c #3D7E1B",
"c  c #1C4523",
"v  c #1B4922",
"b  c #294325",
"n  c #2D412B",
"m  c #31442B",
"M  c #354A2A",
"N  c #384E29",
"B  c #3C5422",
"V  c #3C5329",
"C  c #3F5928",
"Z  c #3D7120",
"A  c #4A731E",
"S  c #417F1B",
"D  c #435E27",
"F  c #456227",
"G  c #476525",
"H  c #496726",
"J  c #4E6E25",
"K  c #477420",
"L  c #4E7025",
"P  c #527424",
"I  c #567A24",
"U  c #587D23",
"Y  c #525A5C",
"T  c #595D66",
"R  c #5B6068",
"E  c #676B73",
"W  c #686C73",
"Q  c #74787E",
"!  c #947A19",
"~  c #A67618",
"^  c #B57018",
"/  c #D06118",
"(  c #DE792F",
")  c #8A6543",
"_  c #996B46",
"`  c #9B7546",
"'  c #A67549",
"]  c #B77F4A",
"[  c #47831C",
"{  c #49841C",
"}  c #4F881C",
"|  c #57831F",
" . c #538B1C",
".. c #598E1D",
"X. c #5C911D",
"o. c #64951E",
"O. c #6B971F",
"+. c #67981E",
"@. c #6E9C1F",
"#. c #709E1F",
"$. c #5E8522",
"%. c #5F8822",
"&. c #608722",
"*. c #648E20",
"=. c #659020",
"-. c #699520",
";. c #6C9920",
":. c #78837F",
">. c #AC8626",
",. c #C3943B",
"<. c #BC834D",
"1. c #BF9F44",
"2. c #BBA241",
"3. c #AA8C66",
"4. c #A58B68",
"5. c #AF9067",
"6. c #BD9466",
"7. c #BD9D72",
"8. c #CB8D50",
"9. c #DE9853",
"0. c #EF9448",
"q. c #E49B53",
"w. c #C9A146",
"e. c #ECA353",
"r. c #F2A554",
"t. c #FAA457",
"y. c #F4A458",
"u. c #FFA658",
"i. c #FEAA5A",
"p. c #FDBC78",
"a. c #838787",
"s. c #898C91",
"d. c #8C9090",
"f. c #93969B",
"g. c #9C9EA4",
"h. c #9DA0A4",
"j. c #B5B8B6",
"k. c #FFCA89",
"l. c #BBBDC0",
"z. c #C0C2C4",
"x. c #D2D4D6",
"c. c #DBDBDC",
"v. c #E7E7E6",
"b. c #E7E8E9",
"n. c #ECECED",
"m. c #EFEFF0",
"M. c #F3F4F4",
"N. c #FFFFFF",
/* pixels */
". . . . . . . . . . . . . . . . . . . . . . . . . . . . . . . . . . . . . . . . . . . . . . . . . . . . . . . . . .   . . . . . ",
". . . . . . . . . . . . . . . . . . . . . . . . . . . . . . . . . . . . . . . . . . . . . . . . . . . . . . . . . . . . . .     ",
"    . . . . . . . . . . . . . . . . . . . . . . . . . . . . . . . . . . . . . . . X . . . . . . .   . . . . . . . . . . . . . . ",
"  . . . . . . . . . . .   . . . . . . . . . . . . . . . . . . . . . . . . . . . . . . . . . . . .     . . . . . . . .   . . .   ",
". . . . . . . . . X . .     . . . . . . . . . . . . . . . . . . . . . . . . . . . . . . . . . .   . . . . . . . . . . . . . . . ",
". . . . . . . . . X & & & * & & * & & * % $ . . . . . . . . . . . . . . * * % * & & & * o . . . . . . . .   . . . . . . . .   . ",
". . . . . . . . . X ; 1 7 7 7 7 7 7 1 - 7 $ . . . . . . . . . . . X . X 7 7 ; ; 1 1 1 = $ . . . . . . . .   . . . . . . . . . . ",
". . . . . . . . . X 7 7 7 e m m m n e 5 2 : X $ X $ X o o o o o $ X X $ 7 7 7 2 2 5 e w > o X . . . . . . . . . . . . . . . . . ",
"  . .   . . . . . . ; = q @.O.@.;.@. .h f c & % * 7 1 1 1 1 1 1 ; = 7 1 1 1 5 f f x #.#.D = = $ . . . . . . . . . . . . . . . . ",
". . . .   . . . . X ; = 0 @.@.@.;.#.} h h # % & * 1 7 7 7 1 1 1 = 1 1 = ; 7 5 f f x ;.@.V = = $ . . . . . . . . . . . . . . . . ",
". . . . . .   . . X ; ; 0 1.w.,.^ ^ ! X.X.z a a A %.&.&.&.&.&.&.&.&.&.&.$.%.J 6 6 b N M w = * $ . . . . . . . . . . . . . . . . ",
"  . . . . . . . . . - = r y.u.0./ / ~ ;.;.{ h h } ;.@.@.@.@.@.@.@.@.#.#.@.@.U = 7 7 1 < 1 1 1 $ . . . . . . . . . . . . . . . . ",
". .   . . . . . . . & * * <.<.] ( ( >.;.O.X.[ x ..@.@.@.@.@.@.@.@.@.@.@.#.;.$.m n m m m w < > $ . . . . . . . . . . . .   . . . ",
". . . . . . . . . . $ o o 1 1 u u.u.2.;.@.@.O.@.@.@.@.@.@.@.@.@.@.@.@.@.@.@.@.@.#.;.;.#.B & & X . . . . . . . . . . . . . . . . ",
". . . . . . . . . . o o o = = u u.u.2.@.@.@.@.@.@.@.@.@.@.@.@.@.@.@.@.@.@.@.@.@.;.#.#.;.B & & X . . . . . . . . . . . . . . . . ",
". . .   . . . . . . * * < %.*...Z Z } @.@.@.@.@.@.@.@.@.@.@.@.@.@.@.@.@.#.@.@.@.#.;.;.#.o.| &.m * - o . . . . . . . . . . . . . ",
". . . .   . . . . . 7 1 2 O.@.o.h h x @.@.@.@.@.@.@.@.;.@.@.@.@.;.#.#.;.@.;.;.#.@.@.@.@.@.;.@.V - 7 X . . . . . . . . . . . . . ",
". . . . . . . o X X m m m @.@.+.x x  .@.@.@.@.@.@.@.@.#.@.#.@.@.#.P I U U I U U I &.@.@.@.@.@.V 7 7 o . . X . . . . . . . . . . ",
". . . . . . . * 1 = @.;.@.@.@.@.@.@.@.@.@.@.@.@.@.@.@.@.@.@.@.@.;.q 7 7 ; 7 7 7 = V @.@.@.@.@.V 1 7 o . . . . . . . . . . . . . ",
". . . . . . . * 1 = @.@.@.@.@.@.@.@.@.@.@.@.@.@.@.@.@.@.@.@.#.#.#.q 7 r 7 7 7 7 7 C @.O.@.@.#.V 1 7 o . . . . . . X . . . . . . ",
". . . . . . . * 1 - ;.@.@.@.@.@.@.#.@.@.@.@.@.@.@.@.@.@.@.@.w w w c.v.b.b.b.b.b.b.a.q 7 L ;.#.;.-.-.e = = . X . X . . . . . . . ",
". . . . . . . & 1 - ;.@.@.@.@.@.@.O.@.@.@.@.@.@.@.#.@.@.@.;.2 7 7 n.N.N.N.N.N.N.N.s.1 7 P #.;.@.@.#.e = 7 . . . . . . . . . . . ",
". . . . .   . * 1 * @.@.@.@.@.+.} } ..@.@.@.@.@.#.;.;.G D F d.f.f.M.N.n.h.h.h.h.h.T 1 7 J ;.@.@.@.#.e 7 7 . . . . . . . . . . . ",
". . . . .   . * 1 = @.#.@.@.@.o.h h x @.@.@.@.@.;.#.#.2 7 r n.N.N.N.N.x.1 7 7 7 7 1 1 7 L @.@.;.@.#.e = 7 . X . X . . . . . . . ",
". . . . . . . * 1 = @.@.@.@.@.o.j j x O.#.@.@.@.@.@.#.2 7 r m.N.N.N.N.x.= 1 7 t t 7 1 7 L ;.;.;.-.-.e 1 7 . .   . X o X X X X . ",
". . . . . . . * 1 = O.@.@.@.@.@.;.#.@.@.;.@.@.@.@.@.#.2 1 r n.N.N.N.N.x.= 1 W N.N.h.1 7 L ;.;.N = = 1 7 7 1 1 1 - - 7 7 - % . . ",
". . . . . . . * ; * @.@.@.@.@.@.@.@.@.@.@.@.@.@.@.@.#.7 7 r n.N.N.N.N.x.1 1 W N.N.h.- < H ;.;.M 1 - 1 1 7 1 = 1 ; ; ; 7 - % . . ",
". . . . . . . * ; = O.@.@.@.@.@.@.@.@.@.#.@.@.@.#.@.#.q 7 r m.N.N.N.N.x.1 7 E N.N.g.* * w N N J L J ` ' ' 4.4.4.4.4.) 7 - % . . ",
". . . . . . . * ; ; ;.@.@.@.@.@.@.@.@.@.@.@.@.@.@.@.#.0 7 7 n.N.N.N.N.x.1 1 E N.N.g.% & * 1 - $.@.;.e.u.u.k.k.k.k.k.7.7 - % . . ",
". . . . . X . * ; = @.;.@.@.@.@.@.@.#.@.@.@.@.@.@.@.#.2 7 r n.N.N.N.N.x.1 1 R c.c.s.% * : 5 2 $.@.;.e.i.u.3.3.5.p.p.6.7 1 % . . ",
". $ 7 1 7 1 = 1 = = O.@.@.@.@.@.@.@.@.@.@.@.@.@.@.@.#.r 7 r v.N.N.N.N.x.1 1 1 * - * % % c h h X.;.;.e.u.i.9 * 9 t.u.<.7 ; % . . ",
". $ < 7 7 1 1 1 = = @.@.@.@.@.@.@.@.@.@.@.@.@.@.@.@.#.2 7 7 c.N.N.N.N.x.1 1 1 1 7 < & % # h h X.@.;.r.u.i.9 & 9 y.u.<.7 7 % . . ",
". % 1 = V P P I U U @.@.@.@.@.@.#.+.@.@.@.@.@.#.@.@.@.I I L Y T T n.N.M.l.l.l.l.j.Q & % c h f  .;.;.r.i.i.8 & 9 t.u.] ; = % . . ",
". $ ; 1 G @.@.@.@.@.@.@.@.#.@.@.#.#.@.@.@.@.@.@.@.@.@.@.@.O.2 1 7 b.N.N.N.N.N.N.N.g.& & c g f ..@.;.r.u.i.8 > 9 t.u.8.1 = % . . ",
". % 1 1 V U U U U U U I I  . ...@.@.@.@.@.@.@.@.@.@.@.@.@.@.b 5 b j.z.z.z.z.z.z.z.:.3 , p h h ..@.+.e.u.i.9 & 9 t.u.<.1 ; % . . ",
". % = 1 1 7 1 1 1 = 1 1 < h h l @.@.@.@.#.@.@.@.@.@.@.@.@.@.j h h 2 7 7 7 7 7 7 1 4 h f h h h } @.@.e.u.u.9 & 9 r.t.<.= ; % . . ",
". % ; ; 7 ; 1 7 = = = = < h h j @.@.@.@.@.#.@.@.@.@.@.@.@.@.j h h 2 1 - 7 1 - 1 = 4 h f h h h ..@.+.e.u.i.8 & 9 y.t.8.= ; % . . ",
". . X X & 1 1 a g s *.o.*.o.o.O.@.@.@.@.@.@.@.@.@.@.@.@.@.@.o.o.o.=.*.o.=.*.H O O , < < v h h j l l q.u.u.q.9.8.y y 8 X . X . . ",
". . . . % 1 = s h h @.@.@.@.@.@.@.@.@.#.@.@.#.@.@.@.#.@.@.@.@.#.;.@.@.@.@.#.A + O : - * c h h h h h q.u.u.u.u.q.; ; %   . . . . ",
". . . . $ 1 = s h h @.@.@.@.@.@.@.@.@.@.@.@.@.@.@.@.@.@.@.@.@.@.@.@.#.@.@.#.%.B d b : : 3 v v v v c ) _ _ _ _ ) % % % X . . . . ",
"  . . . % 1 1 s h h @.@.@.@.@.@.@.@.@.@.@.@.@.@.@.@.@.@.@.@.@.@.@.;.#.@.;.#.;.@.@.A + + : = = - 7 1 ; 7 ; ; ; * . . . . . . . . ",
". . . . % 1 ; j j f @.@.@.@.@.@.@.@.@.@.@.@.@.@.@.#.@.@.@.@.@.@.@.#.@.@.#.#.#.@.#.A + + : - - = ; ; 7 7 7 ; ; - . . . . . .     ",
". . .   . . . * 1 2 j h l @.@.@.@.@.@.@.@.@.@.@.@.@.@.@.@.@.@.@.@.@.@.@.#.;.#.;.@.@.o.+.@.@.;.n 1 7 X . . . . . . . . . . .   . ",
".   . . . . . * 1 1 h h l @.@.@.@.@.@.@.@.@.@.@.@.@.@.#.@.@.@.@.@.#.@.@.;.#.;.;.@.#.;.#.@.#.@.n 1 ; X . . . . . . . . . .   . . ",
". . . . . . . $ % % c c c S x [ @.@.@.@.@.@.@.@. .[ [ [ [ [ { S [ [ [ [ [ [ [ [ [ K F F F F F > % % . . . . . . . . . . . . . . ",
". . .   . . . . . . = 1 2 h h l @.@.@.@.@.@.@.@.x h h h h h j j f f h h h h h h h v 1 7 1 - = $ . . . . . . . . . . . . . . . . ",
". . . . . . . . . . = * * g g k @.@.@.@.@.@.O.;.z g g g j s j s g g g h g g g g h v 5 5 2 * * o . . . . . . . . . . . . . . . . ",
". . . . . . . . . . . . . ; 1 m @.@.@.@.@.L 7 7 = = = = = = = = 1 1 1 1 1 1 7 1 - 4 h h # . . . . . . . . . . . . . . . . . . . ",
". . . . . . . . . . . . . = = M @.@.;.@.@.L = 1 1 7 7 7 ; ; ; = 1 1 1 1 1 1 1 1 1 4 h h i .   . X . . . . . .     . . . . . . . ",
"  . . . . . . . . . . . . ; ; M @.@.@.@.@.J 1 1 % o $ o o $ o $ $ X $ $ 1 1 5 a s s h h @ . . . . . . . . . .   . . . . . . . . ",
". . . . . . . . . . . . . = ; M @.@.@.;.@.J 1 1 % . . . . . . . . . . X 1 1 4 h h h h h @ . . . . . . . . . . . . . . . .   . . ",
". . . . . . . . . . . . . ; 0 e $.$.$.$.$.D 1 = $ . . . . . . . . . . . 1 1 2 a a a a a + .   . . . . . . . . . . . . . . . . . ",
". . . . . . . . . . . . X = 1 1 1 1 = = = = 1 1 $ . . . X . . . . . . X 1 1 1 1 = = = = %     . . . . . . . . . . . . . . . . . ",
". . . . . . . . . . . . . 7 = = - = = = = 1 1 1 $ . . . . . . . . . . X = - 1 1 = = 1 1 & . . . . . . . . . . . . . . . . . . . ",
". . . . . . . . . X   .   % X o X $ $ X X X X X . . . . . . . . . . . . o o o o o o X o X     . . . . . . . . . . . . . . . . . ",
". . . . . . . .     . .   . . . . . . X . . . . . . . . . . . . . . . . . . . . . . . . . . .   . . . . . . . . . . . . . . . . ",
". . . . . . . .   . .   . . . . . . . . . . . . . . . . . . . . . . . . . . . . . . . . . .     . . . . . .   . . . . . . . . . ",
". . . . . . . . . . . . . . . . . . . . . . . . . .   . . . .   . . . . . . . . . . . . . .     . . . . . . . . . . . . . . . . ",
". . . . . . . . . . . . . . .     . . . . . . . . . . . . . . . . . . . . . . . .   . . . . .   . . . .   . . . . . . . . . . . ",
". . . . . . . .   . .   . . . . . . . . . . . . . . . . .   . . . . . . . . . . . . . . . .     .     . . . . . . . . . . . . . ",
". . . . .   . . . .   .     . . . . . .   . . . . . . .   . .   . . . . . . . . . . . . . . . . . . . . . . . . . . . . . . . . ",
". . .   . . . . . . . . . . . .   . . . . . .     . .   . . . . . . . . . . . . . . . . . . . . . . . . . .   . . . . . . . . . ",
". . . .   . . . . . . . . .   . . . . . . . . . . . . . . . . . . . . . . . . . . . . .   .   . .     . . . . . . . .   . . . . ",
". . . .     . . . . . . . . . . .   . .   . . .   . . . . . . . . . . . . . . .   . . . . . . . . . . .   .   . . . . . . . . . "
};
