/* XPM */
static char *result[] = {
/* columns rows colors chars-per-pixel */
"32 32 112 2 ",
"   c black",
".  c #000100",
"X  c #000001",
"o  c #010001",
"O  c #010101",
"+  c #000002",
"@  c #000203",
"#  c #020202",
"$  c gray1",
"%  c #040404",
"&  c gray2",
"*  c #060606",
"=  c #070707",
"-  c gray3",
";  c #090909",
":  c gray4",
">  c #0B0B0B",
",  c #0C0C0C",
"<  c gray5",
"1  c #0E0E0E",
"2  c gray6",
"3  c #101010",
"4  c #111111",
"5  c gray7",
"6  c #131313",
"7  c gray8",
"8  c #151515",
"9  c #161616",
"0  c gray9",
"q  c #181818",
"w  c #191919",
"e  c #1D1D1D",
"r  c #1E1E1E",
"t  c gray12",
"y  c #222222",
"u  c gray14",
"i  c #2C2C2C",
"p  c #2D2D2D",
"a  c gray18",
"s  c #2F2F2F",
"d  c #313131",
"f  c #323232",
"g  c #343434",
"h  c gray21",
"j  c #3A3A3A",
"k  c gray23",
"l  c gray28",
"z  c #494949",
"x  c #515151",
"c  c #5B5B5B",
"v  c gray37",
"b  c #5F5F5F",
"n  c #646464",
"m  c #656565",
"M  c gray46",
"N  c #777777",
"B  c #7B7B7B",
"V  c #7E7E7E",
"C  c gray50",
"Z  c #8B8B8B",
"A  c gray55",
"S  c #8D8D8D",
"D  c gray56",
"F  c #909090",
"G  c gray57",
"H  c #929292",
"J  c #939393",
"K  c gray58",
"L  c #979797",
"P  c #989898",
"I  c gray60",
"U  c #9A9A9A",
"Y  c gray68",
"T  c #B2B2B2",
"R  c gray73",
"E  c #BBBBBB",
"W  c gray",
"Q  c #BEBFBF",
"!  c gray75",
"~  c #C0C0C0",
"^  c gray77",
"/  c #C5C5C5",
"(  c #C8C8C8",
")  c LightGray",
"_  c gray85",
"`  c #DADADA",
"'  c gainsboro",
"]  c gray88",
"[  c #E1E1E1",
"{  c #E2E2E2",
"}  c gray90",
"|  c #E6E6E6",
" . c #E7E7E7",
".. c gray91",
"X. c #E9E9E9",
"o. c #ECECEC",
"O. c gray95",
"+. c #F3F3F3",
"@. c gray96",
"#. c #F6F6F6",
"$. c gray97",
"%. c #F8F8F8",
"&. c #F9F9F9",
"*. c gray98",
"=. c #FBFBFB",
"-. c #FCFBFC",
";. c gray99",
":. c #FDFCFD",
">. c #FDFDFD",
",. c #FEFEFE",
"<. c #FFFFFE",
"1. c white",
/* pixels */
"O O                                       .   @       .   +   o ",
"      ~ ~ ! ! ! ! ! ! ! ! ! ! ! ! ! ! C ! Q W ! ! ! ! ! ! ~     ",
"    V 6 1 1 1 1 1 1 1 1 1 1 1 1 1 1 1 ) 3 3 2 3 3 1 1 1 1 <     ",
"    $.O           O O O O O O O   O   l     O   O O O O O   O   ",
"    #.$ 1.1.1.1.,.  ;.,.1.1.,.  ,.1.#   O 1.,.$ ,.1.1.1.1.#     ",
"    #./ 1.,.,.,.,.  1.,.,.,.1.7 >.1.-.O =.1.>.k ,.,.>.>.>.%     ",
"    #.^ 1.c * * #   1.1.- #.1.t >.1.1.$ ,.1.>.j 1.| & & & $ O   ",
"    #.^ 1.v       $ 1.1.  $.1.y >.1.1.} 1.1.>.j 1...            ",
"    #.^ 1.b [ [ m O 1.1.{ ,.1.u >.1.1.1.1.1.>.j 1.;.]   ,.1.    ",
"    #.^ 1.b ,.1.( # 1.1.1.1.1.y >.1.M 1.N 1.>.j 1.1.1.# %   O   ",
"    #.^ 1.b P ,.1.O 1.1.U =.1.y >.1.3 >.4 1.>.j 1.+.I   >.>.    ",
"    #.^ 1.b O 1.1.O 1.1.  $.1.y >.1.3 R   1.>.j 1...            ",
"    #./ 1.n : 1.1.O 1.1.  $.1.y >.1.5 #   1.>.j 1...: : ;       ",
"    #.E 1.>.,.1.#.O 1.1.  $.,.y :.,.5 '   ,.:.h ,.>.,.1.,.#     ",
"    #.  ,.,.,.,.B % >.>.  $.,.y -.,.5 Y O >.-.  >.>.>.1.,.%     ",
"    &.# 7 4 4 4 3   4 4     6 3 ; 4 > =.  5 5 O 4 6 6 7 6 $ O   ",
"    z c O                   O             O             O x     ",
"      # i p p p a   d a   # a a   s s a s s   s s a a a   ..    ",
"      # ] ,.,.,.>.6 =.1.2 O ,.1.O >.1.1.1.1.4 >.1.,.,.1.r X.    ",
"      # 1.1.@.*.1.P =.1.7   ,.,.& 1.,.+.+.+.6 ,.1.O.@.1.....    ",
"      # 1.1.< J 1.P =.1.7   ,.>.& 1.,.2 2 , > >.1., g 1.....    ",
"      # 1.1.  D 1.P =.1.7   ,.>.& 1.,.    N O >.1.  p 1.....    ",
"      # 1.1.  F 1.U ;.1.7   ,.>.& 1.,.1.= A O ,.1.,.1.1.6 ..    ",
"      # 1.1.  F 1.U ;.1.7 %.,.>.& 1.1.,.8 z # ,.1.,.1.1.& ..    ",
"      # 1.1.  F 1.U ;.1.9 ,.1.e & 1.,.7 9 T O ,.1.5 h 1.| X.    ",
"      # 1.1.  D 1.P =.1.$.1.>.q & 1.,.O     O ,.1.  p 1...X.    ",
"      # ,.1.` o.1.L ;.1.1.1.g O * ,.,.` _ _ & 1.1.  p 1...X.    ",
"      #  .1.1.1.1.f >.1.,.,.0 # O ,.,.1.1.1.8 ,.1.  p 1.| X.    ",
"      O M G G H H O S J H J O *.  A H G H H 8 H K   w H Z X.    ",
"      *.# $ % $ % O # $ # % 1 ,.  # $ # $ $ # & % # O & % X.    ",
"      1.1.1.1.1.1.1.1.<.1.1.,.O ,.,.,.>.,.,.>.>.,.>.>.>.,.>.    ",
"      O             X         # # O O   O O     O       O O     "
};
